<?xml version="1.0" standalone="no"?>
<!DOCTYPE svg PUBLIC "-//W3C//DTD SVG 20010904//EN"
 "http://www.w3.org/TR/2001/REC-SVG-20010904/DTD/svg10.dtd">
<svg version="1.0" xmlns="http://www.w3.org/2000/svg"
 width="421.000000pt" height="421.000000pt" viewBox="0 0 421.000000 421.000000"
 preserveAspectRatio="xMidYMid meet">

<g transform="translate(0.000000,421.000000) scale(0.100000,-0.100000)"
fill="#000000" stroke="none">
<path d="M2483 3800 c-50 -10 -106 -39 -152 -78 l-35 -29 -69 33 c-91 43 -138
50 -202 29 -64 -22 -151 -74 -197 -119 -37 -36 -42 -50 -53 -142 l-6 -50 -57
-12 c-64 -13 -91 -26 -194 -96 -93 -62 -136 -102 -157 -146 -9 -19 -48 -82
-85 -140 -94 -143 -181 -329 -217 -465 -26 -96 -24 -182 6 -296 13 -51 25
-109 25 -127 0 -29 -3 -32 -20 -27 -14 4 -20 2 -20 -8 0 -8 -3 -28 -6 -45 -6
-27 -4 -30 15 -25 23 6 25 15 -28 -167 -11 -36 -22 -82 -26 -102 l-6 -38 164
0 164 0 -5 72 -5 72 33 -38 c18 -20 49 -45 69 -55 37 -19 162 -41 230 -41 122
0 227 78 282 210 17 41 37 82 45 91 19 21 29 75 15 83 -22 14 -10 44 29 80 67
60 113 60 181 -1 39 -36 41 -39 35 -82 -5 -34 -1 -56 15 -90 83 -180 118 -226
199 -265 37 -17 63 -21 145 -20 134 0 201 21 261 79 l47 44 -5 -69 -5 -69 183
-3 c183 -3 184 -3 210 -30 32 -32 33 -1 -1 -641 -14 -260 -28 -526 -32 -593
l-6 -120 -33 -22 -34 -22 -1047 0 c-660 0 -1061 4 -1084 10 -20 6 -48 23 -62
40 -22 24 -27 40 -27 82 0 29 -3 84 -7 122 l-6 69 -45 -89 c-25 -49 -58 -127
-73 -174 l-27 -85 126 -6 c171 -9 2120 -11 2311 -2 132 5 151 8 147 22 -21 69
-21 68 32 75 73 9 150 52 218 122 64 64 131 181 121 209 -8 19 -21 19 -94 0
-31 -8 -78 -15 -103 -15 l-46 0 28 59 c15 32 31 80 34 105 6 41 5 46 -12 46
-11 0 -53 -21 -94 -45 -41 -25 -82 -44 -90 -43 -31 6 -37 93 -14 205 13 66 22
84 64 132 80 94 161 212 203 299 35 73 40 93 45 175 6 121 -15 196 -106 387
-115 238 -142 340 -142 538 -1 175 -14 306 -38 374 -24 67 -83 168 -128 218
-23 26 -33 49 -39 88 -15 111 -133 297 -247 391 -147 120 -370 197 -495 171z
m-252 -879 c139 -48 250 -125 337 -233 60 -75 156 -228 148 -235 -3 -3 -25 0
-50 6 -143 36 -372 -18 -315 -74 14 -14 20 -14 60 1 102 37 260 28 356 -20
l42 -21 -182 -1 c-220 0 -288 -15 -348 -75 l-37 -37 -22 23 c-27 29 -99 49
-145 41 -19 -4 -51 -20 -69 -37 l-34 -29 -17 26 c-51 79 -338 120 -552 79 -43
-8 -79 -15 -80 -15 -2 0 -3 13 -3 30 0 35 63 186 112 267 65 110 184 221 310
289 l63 34 186 0 c156 0 195 -3 240 -19z m246 -597 c-3 -3 -12 -4 -19 -1 -8 3
-5 6 6 6 11 1 17 -2 13 -5z m-756 -15 c46 -6 91 -15 99 -20 10 -6 4 -7 -15 -2
-16 4 -64 7 -105 7 -112 1 -175 -31 -284 -145 -54 -57 -86 -99 -89 -116 -2
-16 -5 17 -5 72 -2 115 9 164 39 184 48 30 216 39 360 20z m1116 -13 c53 -22
63 -50 63 -169 l0 -91 -22 30 c-62 82 -162 173 -221 201 -54 24 -73 28 -150
27 -97 -1 -108 4 -26 13 30 3 56 8 59 10 3 3 61 3 130 0 86 -3 138 -10 167
-21z m-427 -6 c0 -5 -8 -10 -17 -10 -15 0 -16 2 -3 10 19 12 20 12 20 0z m-40
-10 c0 -5 -5 -10 -11 -10 -5 0 -7 5 -4 10 3 6 8 10 11 10 2 0 4 -4 4 -10z
m-594 -51 c50 -24 75 -50 112 -117 l29 -53 7 32 c3 17 6 55 7 83 0 40 2 46 9
29 5 -13 5 -47 -1 -83 -28 -174 -101 -286 -207 -316 -66 -19 -195 -14 -265 11
-23 9 -46 17 -52 18 -16 3 -61 69 -74 106 -12 38 -15 68 -4 58 4 -4 18 16 32
45 28 56 47 70 53 41 3 -13 9 -7 22 21 24 56 62 103 97 122 72 37 161 38 235
3z m833 20 c71 -15 120 -55 156 -125 20 -39 31 -53 33 -41 6 30 34 15 59 -33
13 -25 28 -47 33 -48 6 -2 8 -8 4 -13 -3 -5 -8 -21 -10 -36 -7 -37 -31 -80
-54 -96 -11 -7 -18 -17 -15 -20 3 -4 3 -5 -1 -3 -3 2 -27 -5 -54 -15 -66 -25
-194 -35 -258 -20 -93 23 -167 113 -205 252 -21 74 -30 146 -19 153 4 3 9 -14
11 -37 1 -23 6 -58 10 -77 l7 -35 23 50 c41 92 102 134 223 154 4 0 30 -4 57
-10z"/>
<path d="M1519 2447 c-77 -26 -122 -53 -116 -70 5 -16 43 -13 97 9 61 25 245
25 309 1 40 -16 46 -16 60 -2 66 66 -200 113 -350 62z"/>
<path d="M1610 2221 c-45 -23 -72 -70 -72 -123 -2 -87 58 -149 142 -147 25 0
39 3 33 6 -21 8 -15 22 20 43 40 25 51 25 44 1 -8 -32 19 -14 37 24 63 132
-75 265 -204 196z m44 -56 c9 -25 -5 -45 -30 -45 -14 0 -27 7 -30 15 -10 25 4
45 30 45 13 0 26 -7 30 -15z"/>
<path d="M2462 2220 c-52 -32 -74 -76 -69 -139 3 -48 8 -58 45 -93 37 -34 46
-38 94 -37 29 0 47 3 41 6 -22 8 -14 28 16 46 37 22 49 21 53 0 3 -14 8 -11
21 14 23 43 22 120 -2 159 -37 61 -136 83 -199 44z m43 -70 c0 -18 -6 -26 -23
-28 -24 -4 -38 18 -28 44 3 9 15 14 28 12 17 -2 23 -10 23 -28z"/>
</g>
</svg>
